<svg width="22" height="22" viewBox="0 0 22 22" fill="none" xmlns="http://www.w3.org/2000/svg">
<path d="M16.9676 7.56249C17.4259 7.56249 17.7926 7.19583 17.7926 6.73749V2.47499C17.7926 2.01666 17.4259 1.64999 16.9676 1.64999C16.5092 1.64999 16.1426 2.01666 16.1426 2.47499V6.73749C16.1426 7.18666 16.5184 7.56249 16.9676 7.56249Z" fill="#1A1E25"/>
<path d="M10.9998 14.4375C10.5415 14.4375 10.1748 14.8042 10.1748 15.2625V19.525C10.1748 19.9833 10.5415 20.35 10.9998 20.35C11.4581 20.35 11.8248 19.9833 11.8248 19.525V15.2625C11.8248 14.8133 11.4581 14.4375 10.9998 14.4375Z" fill="#1A1E25"/>
<path d="M5.03252 7.56249C5.49085 7.56249 5.85752 7.19583 5.85752 6.73749V2.47499C5.85752 2.01666 5.49085 1.64999 5.03252 1.64999C4.57419 1.64999 4.20752 2.01666 4.20752 2.47499V6.73749C4.20752 7.18666 4.57419 7.56249 5.03252 7.56249Z" fill="#1A1E25"/>
<path d="M6.73744 9.32251H3.32744C2.86911 9.32251 2.50244 9.68918 2.50244 10.1475C2.50244 10.6058 2.86911 10.9725 3.32744 10.9725H4.20744V19.525C4.20744 19.9833 4.57411 20.35 5.03244 20.35C5.49077 20.35 5.85744 19.9833 5.85744 19.525V10.9725H6.73744C7.19577 10.9725 7.56244 10.6058 7.56244 10.1475C7.56244 9.68918 7.18661 9.32251 6.73744 9.32251Z" fill="#1A1E25"/>
<path d="M18.6725 9.32251H15.2625C14.8042 9.32251 14.4375 9.68918 14.4375 10.1475C14.4375 10.6058 14.8042 10.9725 15.2625 10.9725H16.1425V19.525C16.1425 19.9833 16.5092 20.35 16.9675 20.35C17.4258 20.35 17.7925 19.9833 17.7925 19.525V10.9725H18.6725C19.1308 10.9725 19.4975 10.6058 19.4975 10.1475C19.4975 9.68918 19.1308 9.32251 18.6725 9.32251Z" fill="#1A1E25"/>
<path d="M12.7052 11.0275H11.8252V2.47499C11.8252 2.01666 11.4585 1.64999 11.0002 1.64999C10.5419 1.64999 10.1752 2.01666 10.1752 2.47499V11.0275H9.29522C8.83688 11.0275 8.47021 11.3942 8.47021 11.8525C8.47021 12.3108 8.83688 12.6775 9.29522 12.6775H12.7052C13.1635 12.6775 13.5302 12.3108 13.5302 11.8525C13.5302 11.3942 13.1635 11.0275 12.7052 11.0275Z" fill="#1A1E25"/>
</svg>
