<svg width="14" height="15" viewBox="0 0 14 15" fill="none" xmlns="http://www.w3.org/2000/svg">
<path d="M7.4082 10.3467H7.81654C8.48737 10.3467 9.0357 9.79834 9.0357 9.1275V8.71917H7.4082V10.3467Z" fill="#7D7F88"/>
<path d="M4.96436 9.1275C4.96436 9.79834 5.51269 10.3467 6.18352 10.3467H6.59186V8.71917H4.96436V9.1275Z" fill="#7D7F88"/>
<path d="M4.96436 7.5V7.90833H6.59186V6.28083H6.18352C5.51269 6.28083 4.96436 6.82916 4.96436 7.5Z" fill="#7D7F88"/>
<path d="M11.684 4.47833L8.32984 2.1275C7.414 1.48583 6.014 1.52083 5.13317 2.20333L2.21067 4.48417C1.6215 4.93917 1.1665 5.8725 1.1665 6.6075V10.6325C1.1665 12.12 2.374 13.3333 3.85567 13.3333H10.1382C11.6198 13.3333 12.8273 12.1258 12.8273 10.6383V6.68333C12.8332 5.89583 12.3257 4.9275 11.684 4.47833ZM9.8465 9.1275C9.8465 10.2475 8.93067 11.1633 7.81067 11.1633H6.18317C5.06317 11.1633 4.14734 10.2533 4.14734 9.1275V7.5C4.14734 6.38 5.06317 5.46417 6.18317 5.46417H7.81067C8.93067 5.46417 9.8465 6.37417 9.8465 7.5V9.1275Z" fill="#7D7F88"/>
<path d="M7.81654 6.28083H7.4082V7.90833H9.0357V7.5C9.0357 6.82916 8.48737 6.28083 7.81654 6.28083Z" fill="#7D7F88"/>
</svg>
