<svg width="18" height="19" viewBox="0 0 18 19" fill="none" xmlns="http://www.w3.org/2000/svg">
<path d="M15.4648 6.8375C14.6773 3.3725 11.6548 1.8125 8.99983 1.8125C8.99983 1.8125 8.99983 1.8125 8.99233 1.8125C6.34483 1.8125 3.31483 3.365 2.52733 6.83C1.64983 10.7 4.01983 13.9775 6.16483 16.04C6.95983 16.805 7.97983 17.1875 8.99983 17.1875C10.0198 17.1875 11.0398 16.805 11.8273 16.04C13.9723 13.9775 16.3423 10.7075 15.4648 6.8375ZM8.99983 10.595C7.69483 10.595 6.63733 9.5375 6.63733 8.2325C6.63733 6.9275 7.69483 5.87 8.99983 5.87C10.3048 5.87 11.3623 6.9275 11.3623 8.2325C11.3623 9.5375 10.3048 10.595 8.99983 10.595Z" fill="#7D7F88"/>
</svg>
