<svg width="20" height="20" viewBox="0 0 20 20" fill="none" xmlns="http://www.w3.org/2000/svg">
<path d="M17.1834 7.04165C16.3084 3.19165 12.9501 1.45831 10.0001 1.45831C10.0001 1.45831 10.0001 1.45831 9.99175 1.45831C7.05008 1.45831 3.68341 3.18331 2.80841 7.03331C1.83341 11.3333 4.46675 14.975 6.85008 17.2666C7.73341 18.1166 8.86675 18.5416 10.0001 18.5416C11.1334 18.5416 12.2667 18.1166 13.1417 17.2666C15.5251 14.975 18.1584 11.3416 17.1834 7.04165ZM10.0001 11.2166C8.55008 11.2166 7.37508 10.0416 7.37508 8.59165C7.37508 7.14165 8.55008 5.96665 10.0001 5.96665C11.4501 5.96665 12.6251 7.14165 12.6251 8.59165C12.6251 10.0416 11.4501 11.2166 10.0001 11.2166Z" fill="url(#paint0_linear_24_67)"/>
<defs>
<linearGradient id="paint0_linear_24_67" x1="2.6001" y1="2.34193" x2="18.3831" y2="16.2607" gradientUnits="userSpaceOnUse">
<stop stop-color="#937CFF"/>
<stop offset="1" stop-color="#6246EA"/>
</linearGradient>
</defs>
</svg>
