<svg width="22" height="22" viewBox="0 0 22 22" fill="none" xmlns="http://www.w3.org/2000/svg">
<path d="M15.5835 1.8334H6.41683C3.88683 1.8334 1.8335 3.87756 1.8335 6.3984V11.8801V12.7967C1.8335 15.3176 3.88683 17.3617 6.41683 17.3617H7.79183C8.03933 17.3617 8.36933 17.5267 8.52516 17.7284L9.90016 19.5526C10.5052 20.3592 11.4952 20.3592 12.1002 19.5526L13.4752 17.7284C13.6493 17.4992 13.9243 17.3617 14.2085 17.3617H15.5835C18.1135 17.3617 20.1668 15.3176 20.1668 12.7967V6.3984C20.1668 3.87756 18.1135 1.8334 15.5835 1.8334ZM11.9168 12.6042H6.41683C6.041 12.6042 5.72933 12.2926 5.72933 11.9167C5.72933 11.5409 6.041 11.2292 6.41683 11.2292H11.9168C12.2927 11.2292 12.6043 11.5409 12.6043 11.9167C12.6043 12.2926 12.2927 12.6042 11.9168 12.6042ZM15.5835 8.0209H6.41683C6.041 8.0209 5.72933 7.70923 5.72933 7.3334C5.72933 6.95756 6.041 6.6459 6.41683 6.6459H15.5835C15.9593 6.6459 16.271 6.95756 16.271 7.3334C16.271 7.70923 15.9593 8.0209 15.5835 8.0209Z" fill="#7D7F88"/>
</svg>
