<svg width="24" height="24" viewBox="0 0 24 24" fill="none" xmlns="http://www.w3.org/2000/svg">
<g clip-path="url(#clip0_127_218)">
<path d="M22.5 10.5001H21.4874L18.8833 4.64078C18.7653 4.37576 18.573 4.15061 18.3298 3.99254C18.0865 3.83447 17.8027 3.75025 17.5126 3.75006H6.48743C6.19731 3.75025 5.91346 3.83448 5.6702 3.99257C5.42694 4.15066 5.23469 4.37584 5.1167 4.64087L2.51259 10.5001H1.5C1.30109 10.5001 1.11032 10.5791 0.96967 10.7197C0.829018 10.8604 0.75 11.0511 0.75 11.2501C0.75 11.449 0.829018 11.6397 0.96967 11.7804C1.11032 11.921 1.30109 12.0001 1.5 12.0001H2.25V19.5001C2.25045 19.8977 2.40864 20.279 2.68984 20.5602C2.97105 20.8414 3.35231 20.9996 3.75 21.0001H6C6.39769 20.9996 6.77895 20.8414 7.06016 20.5602C7.34136 20.279 7.49955 19.8977 7.5 19.5001V18.0001H16.5V19.5001C16.5005 19.8977 16.6586 20.279 16.9398 20.5602C17.221 20.8414 17.6023 20.9996 18 21.0001H20.25C20.6477 20.9996 21.029 20.8414 21.3102 20.5602C21.5914 20.279 21.7495 19.8977 21.75 19.5001V12.0001H22.5C22.6989 12.0001 22.8897 11.921 23.0303 11.7804C23.171 11.6397 23.25 11.449 23.25 11.2501C23.25 11.0511 23.171 10.8604 23.0303 10.7197C22.8897 10.5791 22.6989 10.5001 22.5 10.5001ZM7.5 15.0001H6C5.80109 15.0001 5.61032 14.921 5.46967 14.7804C5.32902 14.6397 5.25 14.449 5.25 14.2501C5.25 14.0511 5.32902 13.8604 5.46967 13.7197C5.61032 13.5791 5.80109 13.5001 6 13.5001H7.5C7.69891 13.5001 7.88968 13.5791 8.03033 13.7197C8.17098 13.8604 8.25 14.0511 8.25 14.2501C8.25 14.449 8.17098 14.6397 8.03033 14.7804C7.88968 14.921 7.69891 15.0001 7.5 15.0001ZM16.5 15.0001C16.3011 15.0001 16.1103 14.921 15.9697 14.7804C15.829 14.6397 15.75 14.449 15.75 14.2501C15.75 14.0511 15.829 13.8604 15.9697 13.7197C16.1103 13.5791 16.3011 13.5001 16.5 13.5001H18C18.1989 13.5001 18.3897 13.5791 18.5303 13.7197C18.671 13.8604 18.75 14.0511 18.75 14.2501C18.75 14.449 18.671 14.6397 18.5303 14.7804C18.3897 14.921 18.1989 15.0001 18 15.0001H16.5Z" fill="#7D7F88"/>
</g>
<defs>
<clipPath id="clip0_127_218">
<rect width="24" height="24" fill="white"/>
</clipPath>
</defs>
</svg>
