<svg width="18" height="18" viewBox="0 0 18 18" fill="none" xmlns="http://www.w3.org/2000/svg">
<path d="M17.0757 11.6149L13.0506 9.88982C12.8404 9.79935 12.6109 9.76292 12.3831 9.78385C12.1553 9.80478 11.9363 9.88241 11.7461 10.0097L9.59401 11.4442C8.27869 10.8045 7.21411 9.74463 6.56857 8.43215L6.56874 8.43198L7.99829 6.24762C8.12272 6.05799 8.19822 5.84047 8.21802 5.61452C8.23782 5.38858 8.20131 5.16124 8.11175 4.95286L6.38512 0.924286C6.26758 0.650826 6.06463 0.422795 5.80665 0.274334C5.54867 0.125874 5.24955 0.0649715 4.95406 0.100747C3.79293 0.250038 2.72586 0.81694 1.95219 1.69555C1.17853 2.57416 0.751187 3.70437 0.75 4.87506C0.75 11.6987 6.30136 17.2501 13.125 17.2501C14.2957 17.2489 15.4259 16.8215 16.3045 16.0478C17.1831 15.2742 17.75 14.2071 17.8993 13.0459C17.935 12.7504 17.874 12.4513 17.7256 12.1934C17.5771 11.9354 17.3491 11.7325 17.0757 11.6149V11.6149Z" fill="#7D7F88"/>
</svg>
