<svg width="22" height="22" viewBox="0 0 22 22" fill="none" xmlns="http://www.w3.org/2000/svg">
<path d="M10.9997 1.83333C8.59801 1.83333 6.64551 3.78583 6.64551 6.18749C6.64551 8.54333 8.48801 10.45 10.8897 10.5325C10.963 10.5233 11.0363 10.5233 11.0913 10.5325C11.1097 10.5325 11.1188 10.5325 11.1372 10.5325C11.1463 10.5325 11.1463 10.5325 11.1555 10.5325C13.5022 10.45 15.3447 8.54333 15.3538 6.18749C15.3538 3.78583 13.4013 1.83333 10.9997 1.83333Z" fill="#1A1E25"/>
<path d="M15.6569 12.9708C13.0994 11.2658 8.92854 11.2658 6.35271 12.9708C5.18854 13.75 4.54688 14.8042 4.54688 15.9317C4.54688 17.0592 5.18854 18.1042 6.34354 18.8742C7.62687 19.7358 9.31354 20.1667 11.0002 20.1667C12.6869 20.1667 14.3735 19.7358 15.6569 18.8742C16.8119 18.095 17.4535 17.05 17.4535 15.9133C17.4444 14.7858 16.8119 13.7408 15.6569 12.9708Z" fill="#1A1E25"/>
</svg>
