<svg width="22" height="22" viewBox="0 0 22 22" fill="none" xmlns="http://www.w3.org/2000/svg">
<path d="M11.0002 1.83334C8.5985 1.83334 6.646 3.78584 6.646 6.18751C6.646 8.54334 8.4885 10.45 10.8902 10.5325C10.9635 10.5233 11.0368 10.5233 11.0918 10.5325C11.1102 10.5325 11.1193 10.5325 11.1377 10.5325C11.1468 10.5325 11.1468 10.5325 11.156 10.5325C13.5027 10.45 15.3452 8.54334 15.3543 6.18751C15.3543 3.78584 13.4018 1.83334 11.0002 1.83334Z" fill="#7D7F88"/>
<path d="M15.6569 12.9708C13.0994 11.2658 8.92854 11.2658 6.35271 12.9708C5.18854 13.75 4.54688 14.8042 4.54688 15.9317C4.54688 17.0592 5.18854 18.1042 6.34354 18.8742C7.62687 19.7358 9.31354 20.1667 11.0002 20.1667C12.6869 20.1667 14.3735 19.7358 15.6569 18.8742C16.8119 18.095 17.4535 17.05 17.4535 15.9133C17.4444 14.7858 16.8119 13.7408 15.6569 12.9708Z" fill="#7D7F88"/>
</svg>
