<svg width="25" height="24" viewBox="0 0 25 24" fill="none" xmlns="http://www.w3.org/2000/svg">
<path d="M17.72 9.75H9.46002C8.90002 9.75 8.34002 9.56001 7.90002 9.20001L5.71002 7.45001C5.11002 6.97001 4.77002 6.26 4.77002 5.5C4.77002 4.74 5.11002 4.01999 5.71002 3.54999L7.90002 1.79999C8.34002 1.44999 8.90002 1.25 9.46002 1.25H17.72C19.1 1.25 20.22 2.37 20.22 3.75V7.25C20.22 8.63 19.1 9.75 17.72 9.75ZM9.46002 2.75C9.23002 2.75 9.01003 2.83 8.84003 2.97L6.65002 4.72C6.41002 4.91 6.27002 5.2 6.27002 5.5C6.27002 5.8 6.41002 6.09 6.65002 6.28L8.84003 8.03C9.02003 8.17 9.24002 8.25 9.46002 8.25H17.72C18.27 8.25 18.72 7.8 18.72 7.25V3.75C18.72 3.2 18.27 2.75 17.72 2.75H9.46002Z" fill="#7D8588"/>
<path d="M15.5598 19.75H7.2998C5.9198 19.75 4.7998 18.63 4.7998 17.25V13.75C4.7998 12.37 5.9198 11.25 7.2998 11.25H15.5598C16.1298 11.25 16.6798 11.44 17.1198 11.8L19.3098 13.55C19.9098 14.03 20.2498 14.74 20.2498 15.5C20.2498 16.26 19.9098 16.98 19.3098 17.45L17.1198 19.2C16.6798 19.56 16.1298 19.75 15.5598 19.75ZM7.2998 12.75C6.7498 12.75 6.2998 13.2 6.2998 13.75V17.25C6.2998 17.8 6.7498 18.25 7.2998 18.25H15.5598C15.7898 18.25 16.0098 18.17 16.1798 18.03L18.3698 16.28C18.6098 16.09 18.7498 15.8 18.7498 15.5C18.7498 15.2 18.6098 14.91 18.3698 14.72L16.1798 12.97C15.9998 12.83 15.7798 12.75 15.5598 12.75H7.2998Z" fill="#7D8588"/>
<path d="M12.5 12.75C12.09 12.75 11.75 12.41 11.75 12V9C11.75 8.59 12.09 8.25 12.5 8.25C12.91 8.25 13.25 8.59 13.25 9V12C13.25 12.41 12.91 12.75 12.5 12.75Z" fill="#7D8588"/>
<path d="M12.5 22.75C12.09 22.75 11.75 22.41 11.75 22V19C11.75 18.59 12.09 18.25 12.5 18.25C12.91 18.25 13.25 18.59 13.25 19V22C13.25 22.41 12.91 22.75 12.5 22.75Z" fill="#7D8588"/>
<path d="M15.5 22.75H9.5C9.09 22.75 8.75 22.41 8.75 22C8.75 21.59 9.09 21.25 9.5 21.25H15.5C15.91 21.25 16.25 21.59 16.25 22C16.25 22.41 15.91 22.75 15.5 22.75Z" fill="#7D8588"/>
</svg>
