<svg width="102" height="14" viewBox="0 0 102 14" fill="none" xmlns="http://www.w3.org/2000/svg">
<mask id="mask0_315_564" style="mask-type:alpha" maskUnits="userSpaceOnUse" x="0" y="0" width="14" height="14">
<path d="M8.00936 2.04754L9.03602 4.10087C9.17602 4.38671 9.54936 4.66087 9.86436 4.71337L11.7252 5.02254C12.9152 5.22087 13.1952 6.08421 12.3377 6.93587L10.891 8.38254C10.646 8.62754 10.5119 9.10004 10.5877 9.43837L11.0019 11.2292C11.3285 12.6467 10.576 13.195 9.32186 12.4542L7.57769 11.4217C7.26269 11.235 6.74352 11.235 6.42269 11.4217L4.67852 12.4542C3.43019 13.195 2.67186 12.6409 2.99852 11.2292L3.41269 9.43837C3.48852 9.10004 3.35436 8.62754 3.10936 8.38254L1.66269 6.93587C0.811024 6.08421 1.08519 5.22087 2.27519 5.02254L4.13602 4.71337C4.44519 4.66087 4.81852 4.38671 4.95852 4.10087L5.98519 2.04754C6.54519 0.933372 7.45519 0.933372 8.00936 2.04754Z" fill="white" stroke="#292D32" stroke-width="1.5" stroke-linecap="round" stroke-linejoin="round"/>
</mask>
<g mask="url(#mask0_315_564)">
<rect width="14" height="14" fill="#FFBF75"/>
</g>
<mask id="mask1_315_564" style="mask-type:alpha" maskUnits="userSpaceOnUse" x="22" y="0" width="14" height="14">
<path d="M30.0094 2.04754L31.036 4.10087C31.176 4.38671 31.5494 4.66087 31.8644 4.71337L33.7252 5.02254C34.9152 5.22087 35.1952 6.08421 34.3377 6.93587L32.891 8.38254C32.646 8.62754 32.5119 9.10004 32.5877 9.43837L33.0019 11.2292C33.3285 12.6467 32.576 13.195 31.3219 12.4542L29.5777 11.4217C29.2627 11.235 28.7435 11.235 28.4227 11.4217L26.6785 12.4542C25.4302 13.195 24.6719 12.6409 24.9985 11.2292L25.4127 9.43837C25.4885 9.10004 25.3544 8.62754 25.1094 8.38254L23.6627 6.93587C22.811 6.08421 23.0852 5.22087 24.2752 5.02254L26.136 4.71337C26.4452 4.66087 26.8185 4.38671 26.9585 4.10087L27.9852 2.04754C28.5452 0.933372 29.4552 0.933372 30.0094 2.04754Z" fill="white" stroke="#292D32" stroke-width="1.5" stroke-linecap="round" stroke-linejoin="round"/>
</mask>
<g mask="url(#mask1_315_564)">
<rect x="22" width="14" height="14" fill="#FFBF75"/>
</g>
<mask id="mask2_315_564" style="mask-type:alpha" maskUnits="userSpaceOnUse" x="44" y="0" width="14" height="14">
<path d="M52.0094 2.04754L53.036 4.10087C53.176 4.38671 53.5494 4.66087 53.8644 4.71337L55.7252 5.02254C56.9152 5.22087 57.1952 6.08421 56.3377 6.93587L54.891 8.38254C54.646 8.62754 54.5119 9.10004 54.5877 9.43837L55.0019 11.2292C55.3285 12.6467 54.576 13.195 53.3219 12.4542L51.5777 11.4217C51.2627 11.235 50.7435 11.235 50.4227 11.4217L48.6785 12.4542C47.4302 13.195 46.6719 12.6409 46.9985 11.2292L47.4127 9.43837C47.4885 9.10004 47.3544 8.62754 47.1094 8.38254L45.6627 6.93587C44.811 6.08421 45.0852 5.22087 46.2752 5.02254L48.136 4.71337C48.4452 4.66087 48.8185 4.38671 48.9585 4.10087L49.9852 2.04754C50.5452 0.933372 51.4552 0.933372 52.0094 2.04754Z" fill="white" stroke="#292D32" stroke-width="1.5" stroke-linecap="round" stroke-linejoin="round"/>
</mask>
<g mask="url(#mask2_315_564)">
<rect x="44" width="14" height="14" fill="#FFBF75"/>
</g>
<mask id="mask3_315_564" style="mask-type:alpha" maskUnits="userSpaceOnUse" x="66" y="0" width="14" height="14">
<path d="M74.0094 2.04754L75.036 4.10087C75.176 4.38671 75.5494 4.66087 75.8644 4.71337L77.7252 5.02254C78.9152 5.22087 79.1952 6.08421 78.3377 6.93587L76.891 8.38254C76.646 8.62754 76.5119 9.10004 76.5877 9.43837L77.0019 11.2292C77.3285 12.6467 76.576 13.195 75.3219 12.4542L73.5777 11.4217C73.2627 11.235 72.7435 11.235 72.4227 11.4217L70.6785 12.4542C69.4302 13.195 68.6719 12.6409 68.9985 11.2292L69.4127 9.43837C69.4885 9.10004 69.3544 8.62754 69.1094 8.38254L67.6627 6.93587C66.811 6.08421 67.0852 5.22087 68.2752 5.02254L70.136 4.71337C70.4452 4.66087 70.8185 4.38671 70.9585 4.10087L71.9852 2.04754C72.5452 0.933372 73.4552 0.933372 74.0094 2.04754Z" fill="white" stroke="#292D32" stroke-width="1.5" stroke-linecap="round" stroke-linejoin="round"/>
</mask>
<g mask="url(#mask3_315_564)">
<rect x="66" width="14" height="14" fill="#FFBF75"/>
</g>
<mask id="mask4_315_564" style="mask-type:alpha" maskUnits="userSpaceOnUse" x="88" y="0" width="14" height="14">
<path d="M96.0094 2.04754L97.036 4.10087C97.176 4.38671 97.5494 4.66087 97.8644 4.71337L99.7252 5.02254C100.915 5.22087 101.195 6.08421 100.338 6.93587L98.891 8.38254C98.646 8.62754 98.5119 9.10004 98.5877 9.43837L99.0019 11.2292C99.3285 12.6467 98.576 13.195 97.3219 12.4542L95.5777 11.4217C95.2627 11.235 94.7435 11.235 94.4227 11.4217L92.6785 12.4542C91.4302 13.195 90.6719 12.6409 90.9985 11.2292L91.4127 9.43837C91.4885 9.10004 91.3544 8.62754 91.1094 8.38254L89.6627 6.93587C88.811 6.08421 89.0852 5.22087 90.2752 5.02254L92.136 4.71337C92.4452 4.66087 92.8185 4.38671 92.9585 4.10087L93.9852 2.04754C94.5452 0.933372 95.4552 0.933372 96.0094 2.04754Z" fill="white" stroke="#292D32" stroke-width="1.5" stroke-linecap="round" stroke-linejoin="round"/>
</mask>
<g mask="url(#mask4_315_564)">
<rect x="88" width="14" height="14" fill="#FFBF75"/>
</g>
</svg>
